<svg xmlns="http://www.w3.org/2000/svg" width="100%" viewBox="0 0 100 100" role="img" aria-label="Nielsen Studio">
<rect x="1.5" y="1.5" width="97" height="97" rx="14" fill="none" stroke="#c8643c" stroke-width="2"/>
<g transform="matrix(0.03100 0 0 -0.03100 29.14 81.00)" fill="#f4f2ec"><path d="M434 6Q434 4 432.0 2.0Q430 0 426 0H42Q37 0 35.0 2.0Q33 4 33 6Q33 10 44 14L104 31Q148 45 178.0 76.0Q208 107 208 163V1179Q208 1193 206.5 1199.5Q205 1206 195 1221L102 1374Q98 1382 94.0 1388.0Q90 1394 90 1397Q90 1399 91.5 1399.5Q93 1400 98 1400H403Q409 1400 413.5 1395.0Q418 1390 425 1378L1139 187L1124 157V1237Q1124 1294 1094.0 1325.0Q1064 1356 1018 1369L928 1386Q918 1390 918 1394Q918 1396 920.0 1398.0Q922 1400 926 1400H1310Q1314 1400 1316.0 1398.0Q1318 1396 1318 1394Q1318 1390 1308 1386L1248 1369Q1204 1356 1174.0 1325.0Q1144 1294 1144 1237V196Q1144 184 1147.5 174.5Q1151 165 1156 157L1227 43Q1237 25 1241.0 17.0Q1245 9 1245 6Q1245 3 1242.5 1.5Q1240 0 1233 0H946Q932 0 932 14Q932 20 929.5 28.5Q927 37 922 43L186 1249H227V163Q227 107 257.5 75.5Q288 44 332 31L424 14Q434 10 434 6Z"/></g>
</svg>