<svg xmlns="http://www.w3.org/2000/svg" width="100%" viewBox="0 0 607 112" role="img" aria-label="Nielsen Studio">
<g fill="#f4f2ec">
<g transform="matrix(0.05000 0 0 -0.05000 24.00 88)"><path d="M434 6Q434 4 432.0 2.0Q430 0 426 0H42Q37 0 35.0 2.0Q33 4 33 6Q33 10 44 14L104 31Q148 45 178.0 76.0Q208 107 208 163V1179Q208 1193 206.5 1199.5Q205 1206 195 1221L102 1374Q98 1382 94.0 1388.0Q90 1394 90 1397Q90 1399 91.5 1399.5Q93 1400 98 1400H403Q409 1400 413.5 1395.0Q418 1390 425 1378L1139 187L1124 157V1237Q1124 1294 1094.0 1325.0Q1064 1356 1018 1369L928 1386Q918 1390 918 1394Q918 1396 920.0 1398.0Q922 1400 926 1400H1310Q1314 1400 1316.0 1398.0Q1318 1396 1318 1394Q1318 1390 1308 1386L1248 1369Q1204 1356 1174.0 1325.0Q1144 1294 1144 1237V196Q1144 184 1147.5 174.5Q1151 165 1156 157L1227 43Q1237 25 1241.0 17.0Q1245 9 1245 6Q1245 3 1242.5 1.5Q1240 0 1233 0H946Q932 0 932 14Q932 20 929.5 28.5Q927 37 922 43L186 1249H227V163Q227 107 257.5 75.5Q288 44 332 31L424 14Q434 10 434 6Z"/></g>
<g transform="matrix(0.05000 0 0 -0.05000 89.30 88)"><path d="M367 884V55Q367 42 372.5 34.0Q378 26 391 24L446 14Q452 14 454.0 11.5Q456 9 456 6Q456 4 454.0 2.0Q452 0 448 0H45Q42 0 39.5 2.0Q37 4 37 6Q37 9 39.0 10.5Q41 12 47 13L104 24Q117 26 122.5 34.0Q128 42 128 54V785Q128 791 125.0 794.5Q122 798 115 798H50Q45 798 43.0 800.0Q41 802 41 805Q41 808 43.5 809.5Q46 811 49 812L336 892Q345 895 348.5 895.5Q352 896 356 896Q361 896 364.0 892.5Q367 889 367 884ZM243 1022Q180 1022 140.5 1064.0Q101 1106 101 1166Q101 1227 140.5 1269.0Q180 1311 243 1311Q306 1311 346.5 1269.0Q387 1227 387 1166Q387 1106 346.5 1064.0Q306 1022 243 1022Z"/></g>
<g transform="matrix(0.05000 0 0 -0.05000 111.25 88)"><path d="M840 517Q840 508 834.5 503.0Q829 498 817 498H198V515H585Q602 515 602 534Q602 712 554.5 797.0Q507 882 439 882Q383 882 342.0 843.5Q301 805 278.5 726.0Q256 647 256 525Q256 319 342.0 216.0Q428 113 568 113Q671 113 742.5 170.5Q814 228 822 326Q823 330 825.0 331.5Q827 333 828 333Q830 333 832.0 331.0Q834 329 834 324Q828 225 776.5 147.5Q725 70 640.5 25.0Q556 -20 451 -20Q327 -20 233.5 35.0Q140 90 87.0 189.5Q34 289 34 422Q34 564 87.5 671.0Q141 778 239.0 838.0Q337 898 468 898Q581 898 664.5 848.5Q748 799 794.0 713.0Q840 627 840 517Z"/></g>
<g transform="matrix(0.05000 0 0 -0.05000 152.95 88)"><path d="M373 1473V55Q373 42 378.5 34.0Q384 26 397 24L452 14Q458 14 460.0 11.5Q462 9 462 6Q462 4 460.0 2.0Q458 0 454 0H51Q48 0 45.5 2.0Q43 4 43 6Q43 9 46.0 11.5Q49 14 56 15L110 24Q123 26 128.5 34.0Q134 42 134 54V1373Q134 1379 131.0 1382.5Q128 1386 121 1386H56Q51 1386 49.0 1388.0Q47 1390 47 1393Q47 1397 49.5 1398.5Q52 1400 55 1401L342 1481Q351 1483 354.5 1483.5Q358 1484 362 1484Q367 1484 370.0 1481.0Q373 1478 373 1473Z"/></g>
<g transform="matrix(0.05000 0 0 -0.05000 175.50 88)"><path d="M410 1Q479 1 519.5 37.0Q560 73 560 131Q560 172 541.0 205.0Q522 238 476.5 266.0Q431 294 352 319Q234 358 167.0 404.5Q100 451 71.5 508.5Q43 566 43 639Q43 764 128.0 832.0Q213 900 355 900Q416 900 455.0 888.5Q494 877 515.0 865.0Q536 853 542 853Q552 853 577.0 865.0Q602 877 626.5 888.5Q651 900 659 900Q663 900 666.5 898.5Q670 897 671 889L724 601Q726 593 725.0 588.5Q724 584 721 582Q718 581 715.0 582.0Q712 583 710 587Q652 698 598.0 762.5Q544 827 487.5 854.5Q431 882 364 882Q289 882 247.5 844.5Q206 807 206 744Q206 702 225.5 668.0Q245 634 295.0 605.0Q345 576 437 550Q542 520 606.0 475.5Q670 431 698.0 374.0Q726 317 726 247Q726 165 686.5 105.5Q647 46 580.0 13.5Q513 -19 428 -19Q373 -19 333.0 -3.5Q293 12 268.5 27.5Q244 43 238 43Q233 43 211.5 29.0Q190 15 167.5 0.5Q145 -14 137 -14Q132 -14 127.0 -9.5Q122 -5 120 5L77 252Q76 263 77.0 267.5Q78 272 81 274Q84 276 86.0 274.5Q88 273 91 269Q171 123 251.0 62.0Q331 1 410 1Z"/></g>
<g transform="matrix(0.05000 0 0 -0.05000 212.55 88)"><path d="M840 517Q840 508 834.5 503.0Q829 498 817 498H198V515H585Q602 515 602 534Q602 712 554.5 797.0Q507 882 439 882Q383 882 342.0 843.5Q301 805 278.5 726.0Q256 647 256 525Q256 319 342.0 216.0Q428 113 568 113Q671 113 742.5 170.5Q814 228 822 326Q823 330 825.0 331.5Q827 333 828 333Q830 333 832.0 331.0Q834 329 834 324Q828 225 776.5 147.5Q725 70 640.5 25.0Q556 -20 451 -20Q327 -20 233.5 35.0Q140 90 87.0 189.5Q34 289 34 422Q34 564 87.5 671.0Q141 778 239.0 838.0Q337 898 468 898Q581 898 664.5 848.5Q748 799 794.0 713.0Q840 627 840 517Z"/></g>
<g transform="matrix(0.05000 0 0 -0.05000 254.25 88)"><path d="M363 884V55Q363 42 368.5 34.0Q374 26 387 24L442 14Q452 12 452 6Q452 0 444 0H41Q38 0 35.5 2.0Q33 4 33 6Q33 9 35.0 10.5Q37 12 43 13L100 24Q113 26 118.5 34.0Q124 42 124 54V785Q124 791 121.0 794.5Q118 798 111 798H46Q41 798 39.0 800.0Q37 802 37 805Q37 808 39.5 809.5Q42 811 45 812L332 892Q341 895 344.5 895.5Q348 896 352 896Q357 896 360.0 892.5Q363 889 363 884ZM343 687 333 697 369 729Q468 818 540.5 858.0Q613 898 676 898Q768 898 819.0 840.5Q870 783 885 661L960 61Q962 45 968.5 35.0Q975 25 990 22L1039 13Q1044 13 1046.0 11.0Q1048 9 1048 6Q1048 4 1046.0 2.0Q1044 0 1040 0H630Q621 0 621 6Q621 12 632 14L689 24Q705 26 711.5 36.0Q718 46 716 61L650 637Q640 718 612.0 755.0Q584 792 528 792Q491 792 455.0 773.5Q419 755 378 718Z"/></g>
<g transform="matrix(0.05000 0 0 -0.05000 312.15 88)"><path d="M608 -21Q515 -21 455.5 6.0Q396 33 363.0 59.5Q330 86 318 86Q311 86 295.5 69.5Q280 53 262.0 31.0Q244 9 228.5 -8.0Q213 -25 204 -25Q198 -25 192.0 -20.0Q186 -15 184 -8L108 423Q107 429 107.5 432.5Q108 436 110 437Q113 439 116.5 437.0Q120 435 122 431Q206 260 284.5 166.0Q363 72 438.0 35.0Q513 -2 586 -2Q695 -2 759.5 57.5Q824 117 824 232Q824 302 795.0 361.0Q766 420 696.5 470.5Q627 521 507 564Q349 620 255.0 687.5Q161 755 119.0 836.5Q77 918 77 1020Q77 1139 137.5 1229.0Q198 1319 303.0 1369.5Q408 1420 543 1420Q627 1420 682.0 1399.5Q737 1379 769.0 1358.5Q801 1338 816 1338Q829 1338 855.5 1359.5Q882 1381 907.0 1402.5Q932 1424 942 1424Q947 1424 951.0 1421.0Q955 1418 957 1411L1063 982Q1064 976 1063.5 973.0Q1063 970 1061 968Q1059 967 1055.5 968.5Q1052 970 1049 974Q959 1142 878.0 1234.5Q797 1327 719.0 1364.0Q641 1401 560 1401Q456 1401 388.5 1333.5Q321 1266 321 1148Q321 1075 348.5 1014.0Q376 953 442.5 902.5Q509 852 624 809Q789 750 883.5 683.0Q978 616 1018.0 538.0Q1058 460 1058 366Q1058 258 1004.5 170.5Q951 83 850.5 31.0Q750 -21 608 -21Z"/></g>
<g transform="matrix(0.05000 0 0 -0.05000 366.75 88)"><path d="M106 845 19 863Q13 864 11.0 866.0Q9 868 9 871Q9 874 11.0 876.0Q13 878 16 878H104Q110 878 114.5 880.0Q119 882 123 887L316 1077Q321 1082 326.5 1085.0Q332 1088 337 1088Q343 1088 346.5 1084.0Q350 1080 350 1073V231Q350 150 380.5 110.5Q411 71 464 71Q483 71 500.0 76.5Q517 82 532.0 94.5Q547 107 558.5 127.0Q570 147 578 176Q580 182 584.5 182.0Q589 182 587 175Q571 109 542.5 66.5Q514 24 469.5 3.0Q425 -18 361 -18Q245 -18 182.0 37.0Q119 92 119 206V826Q119 835 116.5 839.5Q114 844 106 845ZM276 857 283 878H580Q585 878 587.5 876.5Q590 875 590 870Q590 865 583.5 861.0Q577 857 565 857Z"/></g>
<g transform="matrix(0.05000 0 0 -0.05000 394.85 88)"><path d="M685 29V160V166V782Q685 788 682.0 791.5Q679 795 671 795H606Q602 795 599.5 797.0Q597 799 597 802Q597 806 599.5 807.5Q602 809 606 810L892 890Q901 892 905.0 893.0Q909 894 913 894Q918 894 920.5 890.5Q923 887 923 882V55Q923 42 929.0 34.0Q935 26 947 24L1002 14Q1008 14 1010.5 11.5Q1013 9 1013 6Q1013 4 1010.5 2.0Q1008 0 1004 0H711Q698 0 691.5 7.5Q685 15 685 29ZM118 234V782Q118 788 115.0 791.5Q112 795 104 795H39Q34 795 32.0 797.0Q30 799 30 802Q30 806 32.5 807.5Q35 809 38 810L326 890Q335 892 338.5 893.0Q342 894 346 894Q351 894 354.0 890.5Q357 887 357 882V258Q357 170 396.5 129.0Q436 88 503 88Q545 88 588.0 106.0Q631 124 674 163L709 194L719 184L683 151Q579 59 496.5 21.0Q414 -17 343 -17Q245 -17 181.5 43.5Q118 104 118 234Z"/></g>
<g transform="matrix(0.05000 0 0 -0.05000 444.70 88)"><path d="M679 115V120V1373Q679 1379 676.0 1382.5Q673 1386 666 1386H601Q596 1386 594.0 1388.0Q592 1390 592 1393Q592 1397 594.5 1398.5Q597 1400 600 1401L887 1481Q896 1483 899.5 1483.5Q903 1484 907 1484Q912 1484 915.0 1481.0Q918 1478 918 1473V55Q918 42 923.5 34.0Q929 26 942 24L997 14Q1003 14 1005.0 11.5Q1007 9 1007 6Q1007 4 1005.0 2.0Q1003 0 999 0H705Q693 0 686.0 7.0Q679 14 679 29ZM45 413Q45 563 101.0 671.5Q157 780 251.5 839.0Q346 898 461 898Q560 898 623.5 859.5Q687 821 725 754L707 745Q679 801 631.0 833.5Q583 866 517 866Q453 866 401.0 824.0Q349 782 318.0 687.5Q287 593 287 435Q287 296 313.5 207.0Q340 118 386.5 75.0Q433 32 493 32Q543 32 595.0 60.0Q647 88 695 152L706 140Q634 53 566.0 16.5Q498 -20 414 -20Q306 -20 222.5 32.5Q139 85 92.0 182.0Q45 279 45 413Z"/></g>
<g transform="matrix(0.05000 0 0 -0.05000 493.50 88)"><path d="M367 884V55Q367 42 372.5 34.0Q378 26 391 24L446 14Q452 14 454.0 11.5Q456 9 456 6Q456 4 454.0 2.0Q452 0 448 0H45Q42 0 39.5 2.0Q37 4 37 6Q37 9 39.0 10.5Q41 12 47 13L104 24Q117 26 122.5 34.0Q128 42 128 54V785Q128 791 125.0 794.5Q122 798 115 798H50Q45 798 43.0 800.0Q41 802 41 805Q41 808 43.5 809.5Q46 811 49 812L336 892Q345 895 348.5 895.5Q352 896 356 896Q361 896 364.0 892.5Q367 889 367 884ZM243 1022Q180 1022 140.5 1064.0Q101 1106 101 1166Q101 1227 140.5 1269.0Q180 1311 243 1311Q306 1311 346.5 1269.0Q387 1227 387 1166Q387 1106 346.5 1064.0Q306 1022 243 1022Z"/></g>
<g transform="matrix(0.05000 0 0 -0.05000 515.45 88)"><path d="M502 898Q634 898 736.0 839.0Q838 780 896.0 675.5Q954 571 954 435Q954 301 894.5 198.5Q835 96 730.0 38.0Q625 -20 490 -20Q358 -20 256.5 37.5Q155 95 97.5 197.5Q40 300 40 435Q40 570 99.0 674.0Q158 778 262.5 838.0Q367 898 502 898ZM551 -3Q613 3 652.5 57.0Q692 111 705.5 212.0Q719 313 702 459Q685 607 649.0 702.5Q613 798 561.0 842.5Q509 887 444 880Q380 874 341.0 819.0Q302 764 290.0 663.0Q278 562 295 418Q312 273 348.5 177.5Q385 82 437.0 36.5Q489 -9 551 -3Z"/></g>
</g>
<circle cx="567.2" cy="84" r="7" fill="#c8643c"/>
</svg>